<svg xmlns="http://www.w3.org/2000/svg" width="32" height="32" fill="green" viewBox="0 0 24 24">
  <path d="M12.04 2C6.58 2 2.15 6.42 2.15 11.88c0 1.97.52 3.87 1.51 5.54L2 22l4.74-1.61a9.82 9.82 0 0 0 5.3 1.52h.01c5.46 0 9.89-4.42 9.89-9.88C21.93 6.42 17.5 2 12.04 2zm5.74 14.2c-.24.68-1.38 1.3-1.9 1.38-.5.08-1.13.12-1.82-.12-.42-.14-.96-.31-1.66-.61-2.92-1.26-4.82-4.16-4.96-4.35-.14-.18-1.19-1.58-1.19-3.01 0-1.43.75-2.14 1.02-2.43.27-.29.59-.36.78-.36h.56c.18 0 .42-.07.66.5.24.58.82 2.01.9 2.15.08.14.12.31.02.5-.1.19-.15.31-.3.48-.14.18-.3.39-.43.52-.14.14-.28.29-.12.56.16.27.72 1.18 1.55 1.91 1.07.95 1.98 1.25 2.25 1.39.27.14.43.12.59-.07.16-.19.68-.79.86-1.06.18-.27.36-.22.6-.14.24.08 1.52.72 1.78.85.27.14.44.2.5.31.06.11.06.68-.18 1.36z"></path>
</svg>
